# xmcd database file
#
# Track frame offsets:
# 182
# 12670
# 27335
# 38165
# 48157
# 57670
# 69302
# 80567
# 92615
# 103540
# 115687
# 127552
# 139067
# 149735
# 160560
# 171772
#
# Disc length: 2441 seconds
#
# Revision: 0
# Processed by: cddbd v1.4PL0 Copyright (c) Steve Scherf et al.
# Submitted via: CD-Runner 2003.08
#
DISCID=d0098710
DTITLE=Sam Cooke - Greatest Hits
DYEAR=1900
DGENRE=Soul
TTITLE0=You Send Me
TTITLE1=I Love You For Sentimental Reasons
TTITLE2=Lovable
TTITLE3=I'll Come Running Back To You
TTITLE4=Wonderful World
TTITLE5=Chain Gang
TTITLE6=Cupi
TTITLE7=Twistin' The Night Away
TTITLE8=Having A Party
TTITLE9=Bring It On Home To Me
TTITLE10=Nothing Can Change This Love
TTITLE11=Ol'Man River
TTITLE12=Summertime
TTITLE13=Another Saturday Night
TTITLE14=Ain't It Good News
TTITLE15=Good Times
EXTD=
EXTT0=
EXTT1=
EXTT2=
EXTT3=
EXTT4=
EXTT5=
EXTT6=
EXTT7=
EXTT8=
EXTT9=
EXTT10=
EXTT11=
EXTT12=
EXTT13=
EXTT14=
EXTT15=
PLAYORDER=
